<?xml version="1.0" encoding="UTF-8" standalone="no"?>
<!-- Created with Inkscape (http://www.inkscape.org/) -->
<svg width="228mm" height="228mm" version="1.1" viewBox="0 0 861.73 861.73" id="svg291" sodipodi:docname="firefox_2004.svg" inkscape:version="1.1.2 (0a00cf5339, 2022-02-04)" xmlns:inkscape="http://www.inkscape.org/namespaces/inkscape" xmlns:sodipodi="http://sodipodi.sourceforge.net/DTD/sodipodi-0.dtd" xmlns:xlink="http://www.w3.org/1999/xlink" xmlns="http://www.w3.org/2000/svg" xmlns:svg="http://www.w3.org/2000/svg">
  <sodipodi:namedview id="namedview293" pagecolor="#ffffff" bordercolor="#cccccc" borderopacity="1" inkscape:pageshadow="0" inkscape:pageopacity="1" inkscape:pagecheckerboard="0" inkscape:document-units="mm" showgrid="false" inkscape:zoom="1.0107548" inkscape:cx="431.36082" inkscape:cy="431.36082" inkscape:window-width="2560" inkscape:window-height="1358" inkscape:window-x="0" inkscape:window-y="0" inkscape:window-maximized="1" inkscape:current-layer="svg291"/>
  <defs id="defs183">
    <linearGradient id="linearGradient557470">
      <stop stop-color="#e85d0b" offset="0" id="stop2"/>
      <stop stop-color="#e35100" offset="1" id="stop4"/>
    </linearGradient>
    <linearGradient id="linearGradient347675">
      <stop stop-color="#ef9b17" offset="0" id="stop7"/>
      <stop stop-color="#e85d0b" offset="1" id="stop9"/>
    </linearGradient>
    <linearGradient id="linearGradient184326">
      <stop stop-color="#f9822c" offset="0" id="stop12"/>
      <stop stop-color="#ffe725" offset="1" id="stop14"/>
    </linearGradient>
    <linearGradient id="linearGradient3632">
      <stop stop-color="#fee2ac" offset="0" id="stop17"/>
      <stop stop-color="#e85d0b" stop-opacity=".99498" offset="1" id="stop19"/>
    </linearGradient>
    <linearGradient id="linearGradient12264">
      <stop stop-color="#0a8cc5" offset="0" id="stop22"/>
      <stop stop-color="#00022c" offset="1" id="stop24"/>
    </linearGradient>
    <radialGradient id="radialGradient2316" cx="454.03" cy="215.56" r="393.07" gradientTransform="matrix(1.2776 .087509 -.059963 .8754 -113.09 -5.3131)" gradientUnits="userSpaceOnUse">
      <stop stop-color="#11aae2" offset="0" id="stop27"/>
      <stop stop-color="#032863" offset="1" id="stop29"/>
    </radialGradient>
    <radialGradient id="radialGradient12270" cx="459.25" cy="221.08" r="196.33" gradientTransform="matrix(2.091 .092929 -.073547 1.6549 -491.14 -193.19)" gradientUnits="userSpaceOnUse" xlink:href="#linearGradient12264"/>
    <radialGradient id="radialGradient19073" cx="453.36" cy="216.04" r="29.41" gradientTransform="matrix(14.067 .67819 -.52837 10.96 -5810.1 -2459.3)" gradientUnits="userSpaceOnUse" xlink:href="#linearGradient12264"/>
    <radialGradient id="radialGradient44064" cx="452.8" cy="205.05" r="370.15" gradientTransform="matrix(1.0909 .057235 -.045913 .87508 -31.732 9.9273)" gradientUnits="userSpaceOnUse" xlink:href="#linearGradient12264"/>
    <linearGradient id="linearGradient50044" x1="381.28" x2="459.18" y1="462.76" y2="522.52" gradientTransform="translate(0 6.559)" gradientUnits="userSpaceOnUse">
      <stop stop-color="#921203" offset="0" id="stop35"/>
      <stop stop-color="#da3807" offset="1" id="stop37"/>
    </linearGradient>
    <linearGradient id="linearGradient56839" x1="197.43" x2="280.24" y1="408.03" y2="569.61" gradientTransform="translate(0 7.559)" gradientUnits="userSpaceOnUse">
      <stop stop-color="#a62706" offset="0" id="stop40"/>
      <stop stop-color="#ef6b17" offset="1" id="stop42"/>
    </linearGradient>
    <linearGradient id="linearGradient59652" x1="89.702" x2="98.527" y1="202.4" y2="93.542" gradientTransform="translate(0 7.559)" gradientUnits="userSpaceOnUse">
      <stop stop-color="#c2360a" offset="0" id="stop45"/>
      <stop stop-color="#e87618" offset="1" id="stop47"/>
    </linearGradient>
    <linearGradient id="linearGradient64136" x1="322.33" x2="393.19" y1="314.77" y2="269.83" gradientTransform="translate(0 7.559)" gradientUnits="userSpaceOnUse">
      <stop stop-color="#f3cbaa" offset="0" id="stop50"/>
      <stop stop-color="#ffc" offset="1" id="stop52"/>
    </linearGradient>
    <linearGradient id="linearGradient73078" x1="300.5" x2="329.12" y1="228.97" y2="293.23" gradientTransform="translate(0 7.559)" gradientUnits="userSpaceOnUse">
      <stop stop-color="#8c0100" offset="0" id="stop55"/>
      <stop stop-color="#cf4f08" stop-opacity=".99676" offset="1" id="stop57"/>
    </linearGradient>
    <radialGradient id="radialGradient3636" cx="433.61" cy="167.04" r="276.83" gradientTransform="matrix(-.037606 .28426 -.54812 -.072513 316.18 29.998)" gradientUnits="userSpaceOnUse" xlink:href="#linearGradient3632"/>
    <linearGradient id="linearGradient8233" x1="309.58" x2="304.91" y1="131.3" y2="204.12" gradientTransform="translate(0 7.559)" gradientUnits="userSpaceOnUse">
      <stop stop-color="#fee2ac" offset="0" id="stop61"/>
      <stop stop-color="#e85d0b" offset="1" id="stop63"/>
    </linearGradient>
    <linearGradient id="linearGradient10988" x1="413.63" x2="248.22" y1="425.36" y2="325.34" gradientTransform="translate(0 7.559)" gradientUnits="userSpaceOnUse" xlink:href="#linearGradient3632"/>
    <linearGradient id="linearGradient108064" x1="483.67" x2="587.75" y1="770.68" y2="684.16" gradientTransform="translate(0 7.559)" gradientUnits="userSpaceOnUse">
      <stop stop-color="#b30000" offset="0" id="stop67"/>
      <stop stop-color="#f9822c" offset="1" id="stop69"/>
    </linearGradient>
    <linearGradient id="linearGradient115050" x1="516" x2="499.35" y1="633.95" y2="636.02" gradientTransform="translate(0 7.559)" gradientUnits="userSpaceOnUse">
      <stop stop-color="#f9822c" offset="0" id="stop72"/>
      <stop stop-color="#e85d0b" offset="1" id="stop74"/>
    </linearGradient>
    <linearGradient id="linearGradient151625" x1="359.17" x2="448.87" y1="664.13" y2="668.84" gradientTransform="translate(0 7.559)" gradientUnits="userSpaceOnUse">
      <stop stop-color="#e85d0b" offset="0" id="stop77"/>
      <stop stop-color="#ec790a" offset="1" id="stop79"/>
    </linearGradient>
    <linearGradient id="linearGradient160083" x1="757.14" x2="786.09" y1="149.91" y2="234.54" gradientTransform="translate(-.00062322 7.5585)" gradientUnits="userSpaceOnUse">
      <stop stop-color="#fca32a" offset="0" id="stop82"/>
      <stop stop-color="#f9822c" offset="1" id="stop84"/>
    </linearGradient>
    <linearGradient id="linearGradient163553" x1="752.06" x2="597.7" y1="248.03" y2="94.792" gradientTransform="translate(0 7.559)" gradientUnits="userSpaceOnUse">
      <stop stop-color="#f9822c" offset="0" id="stop87"/>
      <stop stop-color="#ffe725" offset="1" id="stop89"/>
    </linearGradient>
    <linearGradient id="linearGradient184328" x1="722.12" x2="710.43" y1="400.56" y2="303.74" gradientTransform="translate(0 7.559)" gradientUnits="userSpaceOnUse" xlink:href="#linearGradient184326"/>
    <linearGradient id="linearGradient193594" x1="753.63" x2="762.29" y1="484.7" y2="308.76" gradientTransform="translate(0 7.559)" gradientUnits="userSpaceOnUse" xlink:href="#linearGradient184326"/>
    <linearGradient id="linearGradient196472" x1="736.64" x2="817.51" y1="583.19" y2="415.01" gradientTransform="translate(0 7.559)" gradientUnits="userSpaceOnUse" xlink:href="#linearGradient184326"/>
    <linearGradient id="linearGradient200068" x1="682.71" x2="682.94" y1="551.34" y2="464.46" gradientTransform="translate(0 7.559)" gradientUnits="userSpaceOnUse" xlink:href="#linearGradient184326"/>
    <linearGradient id="linearGradient200735" x1="464.05" x2="756.6" y1="721.49" y2="615.73" gradientTransform="translate(0 7.559)" gradientUnits="userSpaceOnUse">
      <stop stop-color="#b30000" offset="0" id="stop96"/>
      <stop stop-color="#ffca31" offset=".59718" id="stop98"/>
      <stop stop-color="#fffcb5" offset="1" id="stop100"/>
    </linearGradient>
    <linearGradient id="linearGradient297111" x1="242.21" x2="225.06" y1="533.32" y2="414.11" gradientTransform="translate(0 7.559)" gradientUnits="userSpaceOnUse">
      <stop stop-color="#df741c" offset="0" id="stop103"/>
      <stop stop-color="#df741c" stop-opacity="0" offset="1" id="stop105"/>
    </linearGradient>
    <linearGradient id="linearGradient323955" x1="265.1" x2="206.24" y1="697.82" y2="656.46" gradientTransform="translate(0 7.559)" gradientUnits="userSpaceOnUse">
      <stop stop-color="#cd5800" offset="0" id="stop108"/>
      <stop stop-color="#df741c" stop-opacity="0" offset="1" id="stop110"/>
    </linearGradient>
    <linearGradient id="linearGradient343142" x1="175.16" x2="133.8" y1="670.2" y2="611.78" gradientTransform="translate(0 7.559)" gradientUnits="userSpaceOnUse">
      <stop stop-color="#cd5800" offset="0" id="stop113"/>
      <stop stop-color="#cd5800" stop-opacity="0" offset="1" id="stop115"/>
    </linearGradient>
    <linearGradient id="linearGradient345984" x1="102.12" x2="74.916" y1="616.93" y2="550.36" gradientTransform="translate(0 7.559)" gradientUnits="userSpaceOnUse">
      <stop stop-color="#cd5800" offset="0" id="stop118"/>
      <stop stop-color="#cd5800" stop-opacity="0" offset="1" id="stop120"/>
    </linearGradient>
    <linearGradient id="linearGradient347677" x1="192.51" x2="171.97" y1="632.21" y2="603.15" gradientTransform="translate(0 7.559)" gradientUnits="userSpaceOnUse" xlink:href="#linearGradient347675"/>
    <linearGradient id="linearGradient369643" x1="178.11" x2="171.01" y1="658.19" y2="595.43" gradientTransform="translate(0 7.559)" gradientUnits="userSpaceOnUse" xlink:href="#linearGradient347675"/>
    <linearGradient id="linearGradient372028" x1="86.737" x2="102.34" y1="482.08" y2="591.93" gradientTransform="translate(0 7.559)" gradientUnits="userSpaceOnUse">
      <stop stop-color="#e85d0b" offset="0" id="stop125"/>
      <stop stop-color="#f1a419" offset="1" id="stop127"/>
    </linearGradient>
    <linearGradient id="linearGradient389774" x1="95.976" x2="86.156" y1="473.58" y2="376.05" gradientTransform="translate(0 7.559)" gradientUnits="userSpaceOnUse">
      <stop stop-color="#ef9015" offset="0" id="stop130"/>
      <stop stop-color="#e85d0b" offset="1" id="stop132"/>
    </linearGradient>
    <linearGradient id="linearGradient426502" x1="82.458" x2="53.214" y1="381.85" y2="511.46" gradientTransform="translate(0 7.559)" gradientUnits="userSpaceOnUse">
      <stop stop-color="#e85d0b" offset="0" id="stop135"/>
      <stop stop-color="#f09f18" offset="1" id="stop137"/>
    </linearGradient>
    <linearGradient id="linearGradient461648" x1="18.833" x2="89.815" y1="311.91" y2="242.28" gradientTransform="translate(0 7.559)" gradientUnits="userSpaceOnUse">
      <stop stop-color="#f09f18" offset="0" id="stop140"/>
      <stop stop-color="#e85d0b" offset="1" id="stop142"/>
    </linearGradient>
    <linearGradient id="linearGradient469883" x1="485.39" x2="423.94" y1="492.69" y2="460.03" gradientTransform="translate(0 7.559)" gradientUnits="userSpaceOnUse">
      <stop stop-color="#f6dab0" offset="0" id="stop145"/>
      <stop stop-color="#ec6613" offset="1" id="stop147"/>
    </linearGradient>
    <linearGradient id="linearGradient473489" x1="48.222" x2="29.787" y1="380.93" y2="436.61" gradientTransform="translate(0 7.559)" gradientUnits="userSpaceOnUse">
      <stop stop-color="#e85d0b" offset="0" id="stop150"/>
      <stop stop-color="#ea7b11" offset="1" id="stop152"/>
    </linearGradient>
    <linearGradient id="linearGradient497445" x1="30.277" x2="79.33" y1="401.07" y2="311.47" gradientTransform="translate(0 7.559)" gradientUnits="userSpaceOnUse">
      <stop stop-color="#ef9d18" offset="0" id="stop155"/>
      <stop stop-color="#e35100" offset="1" id="stop157"/>
    </linearGradient>
    <linearGradient id="linearGradient533196" x1="113.94" x2="84.048" y1="277.81" y2="314.31" gradientTransform="translate(0 7.559)" gradientUnits="userSpaceOnUse">
      <stop stop-color="#e85d0b" offset="0" id="stop160"/>
      <stop stop-color="#f1a118" offset="1" id="stop162"/>
    </linearGradient>
    <linearGradient id="linearGradient547904" x1="104.47" x2="138.71" y1="381.44" y2="316.21" gradientTransform="translate(0 7.559)" gradientUnits="userSpaceOnUse">
      <stop stop-color="#f1a118" offset="0" id="stop165"/>
      <stop stop-color="#e85d0b" offset="1" id="stop167"/>
    </linearGradient>
    <linearGradient id="linearGradient557472" x1="120.59" x2="114.8" y1="283.71" y2="287.78" gradientTransform="translate(0 7.559)" gradientUnits="userSpaceOnUse" xlink:href="#linearGradient557470"/>
    <linearGradient id="linearGradient559355" x1="100.59" x2="105.99" y1="341.66" y2="329.8" gradientTransform="translate(0 7.559)" gradientUnits="userSpaceOnUse" xlink:href="#linearGradient557470"/>
    <filter id="filter1622" x="-0.023111685" y="-0.025774094" width="1.057057" height="1.0703418" color-interpolation-filters="sRGB">
      <feFlood flood-color="rgb(0,0,0)" flood-opacity=".74902" result="flood" id="feFlood172"/>
      <feComposite in="flood" in2="SourceGraphic" operator="in" result="composite1" id="feComposite174"/>
      <feGaussianBlur in="composite1" result="blur" stdDeviation="8" id="feGaussianBlur176"/>
      <feOffset dx="9" dy="14" result="offset" id="feOffset178"/>
      <feComposite in="offset" in2="offset" operator="atop" result="composite2" id="feComposite180"/>
    </filter>
  </defs>
  <g id="g289">
    <circle cx="423.31" cy="430.87" r="393.07" fill="url(#radialGradient2316)" stroke-width="0" id="circle189"/>
    <g transform="translate(0 7.559)" stroke="#000" stroke-dasharray="0, 11" id="g195">
      <path d="m475.65 293.47c-4.9267 0.22011-9.8919 0.21615-13.945 4.6237-2.6173 2.846-3.6741 8.4217-2.3145 13.057 1.4326 4.8837 7.0362 7.8159 8.482 12.696 1.3218 14.219-7.7469 8.5572-9.7494 15.148-1.1438 3.5729 2.5485 7.2707 6.0735 8.5546 7.4903 2.7283 9.8862 1.8238 14.628 4.5855 4.979 2.8998 1.9762 7.7328 9.0297 11.656 8.6809 4.828 17.306-1.1414 18.664 4.0012 2.3806 9.0183-6.6543 17.598-7.9123 26.84-1.1576 8.5042-4.155 18.698 0.75569 25.737 4.1212 5.9074 17.694-1.0782 20.935 5.3544 3.3479 6.6454-10.816 14.215-7.677 20.962 2.7936 6.0035 14.411-0.10295 19.406 4.2442 3.1293 2.7235 2.3875 6.6736-0.45152 9.6985-2.988 3.1837-9.1528 0.46951-12.757 2.9346-4.1086 2.8103-4.3652 8.4016-9.0396 10.113-7.4535 2.729-14.773 2.4068-22.691 2.9575-8.9722 0.62397-18.634 0.36699-26.595 4.5515-6.1724 3.2443-7.5535 12.083-13.098 16.312-7.5125 5.7305-16.653 8.9555-25.228 12.923-13.196 6.106-25.636 15.384-40.052 17.282-13.327 1.7552-26.332-7.506-39.755-6.7718-9.6385 0.52722-17.382 9.8378-27.018 10.424-12.94 0.7875-26.961-12.631-38.355-6.4459-10.348 5.6178-10.983 21.675-11.376 33.443-0.59229 17.725-1.9061 38.163 8.504 52.521 11.84 16.331 32.77 24.874 52.007 30.941 18.023 5.6846 37.933 6.2775 56.597 3.3136 4.5096-0.71611 4.0124-8.437 4.3449-12.991 0.4569-6.2575-1.6609-12.449-2.03-18.713-0.34022-5.7722-2.1661-11.948-0.0953-17.346 2.3699-6.1783 6.6286-12.522 12.625-15.32 5.4164-2.5271 12.347 3.2944 17.898 1.0782 2.7776-1.1089 4.06-8.0654 2.9974-10.861-1.2452-3.2763-9.0752-4.021-7.6439-7.2204 3.0825-6.8904 12.363-5.844 15.915-12.504 3.0754-5.7661 1.4203-13.155 2.5748-19.588 0.83546-4.6544-0.0767-9.9584 3.3193-13.249 1.554-1.5059 4.9973 0.61656 5.9705 2.5494 1.5353 3.0491-0.36313 7.4839-0.71658 10.879-0.81862 7.8642-0.42748 15.19-2.7828 22.738-1.495 4.7908-6.0496 8.2723-7.4217 13.1-0.89908 3.1633-2.3379 9.285 0.90625 9.8242 5.6562 0.93998 10.004-6.2709 15.682-7.0674 6.9191-0.97054 8.9122-0.97953 15.49 1.3766 1.8894 0.67681 6.6169 4.6942 8.5537 5.2202 5.9866 1.6258 11.15-2.4359 16.509 0.68844 3.5 2.0404-0.94722 8.6385 1.1601 12.099 2.5851 4.2446 9.3277 4.8188 11.777 9.1433 4.2642 7.5294 7.2919 16.207 7.4796 24.858 0.17791 8.2012-9.9398 16.344-6.425 23.756 4.4884 9.4651 15.846 20.028 26.036 17.599 11.375-2.7113 9.2586-24.686 20.265-28.635 12.214-4.3824 25.982 12.136 38.165 7.6698 13.494-4.9468 32.051-18.206 28.694-32.18-3.0476-12.686-27.448-0.73072-38.329-7.9292-5.7151-3.7808-3.8445-13.296-4.1058-20.143-0.53962-14.14-2.5154-28.915 1.7184-42.418 1.6035-5.1139 8.7048-8.3573 14.039-7.8371 6.3134 0.61569 13.452 7.917 15.295 2.0386 1.942-6.1973 1.2802-9.3528-0.9322-15.134-1.5321-4.0037-10.716-7.464-7.5812-10.388 5.971-5.5708 18.552 1.1577 23.998-4.9279 5.0512-5.6452-0.53918-15.246 0.73544-22.714 1.0528-6.1677 6.3172-11.473 6.1679-17.728-0.11032-4.6198-6.2475-7.4587-6.8786-12.037-0.775-5.6218-2.0151-13.95 2.9068-16.775 5.1066-2.931 12.589 8.0549 20.193 3.1635 6.1643-3.965 1.278-10.13 4.6171-15.437 1.531-2.4336 5.4488-1.378 6.8298-5.2736 1.8703-5.2757-2.0724-11.524-0.94582-17.007 0.85186-4.1457 7.0631-7.054 7.1713-11.333 0.22138-8.7542-8.1053-18.668-13.171-21.236-13.046-6.6129-25.642 10.721-33.6 5.0416-12.993-9.2734-5.3951-15.353-10.495-19.45-2.0689-1.6621-8.4722 1.5846-9.524-2.1435-1.2453-4.414 1.3112-9.1039 4.4892-12.4 3.4525-3.5803 7.0497-9.9885 4.781-14.415-1.7786-3.47-7.6736-3.0866-11.584-1.6246-3.8832 1.4517-9.0166 5.2633-12.397 0.99555-6.8952-8.7049 22.334-9.8406 13.463-18.935-10.524-10.79-13.55-13.96-15.469-17.02-1.9192-3.0597-2.7324-6.0088-12.169-14.372-5.1544-4.5682-13.692 1.6286-20.288-0.18129-3.0978-0.85-3.0955-6.8116-7.0068-8.305-5.4578-2.0839-13.914-1.9672-16.929 2.3709-2.5297 3.6397-1.8638 8.8384 0.0248 12.179 3.2932 5.8255 8.8683 9.9418 11.876 15.92 1.996 3.967 3.9844 5.4397 2.7895 11.334-0.75748 3.7365-1.4462 7.9747-6.8107 7.2544-5.8365-0.78362-8.819-6.9652-14.259-9.2191-3.5629-1.4761-5.4898 0.80949-11.953-1.7603-4.484-1.7829-4.1484-4.1149-9.6231-8.5569-3.205-2.6005-7.0436-2.4394-11.167-2.2552z" fill="url(#radialGradient12270)" id="path191"/>
      <path d="m419.04 166.63c7.4515-3.311 8.0378-16.567 15.947-18.549 2.5562-0.64068 6.0741 0.56212 7.3722 2.8555 2.7814 4.9141-1.781 7.3448-0.36967 11.33 1.2521 3.5351 3.9492 0.83728 4.9876 3.4996 1.9419 4.979-2.2014 7.0658-1.2837 11.087 1.1264 4.9354 5.3554 6.2662 5.519 10.465 0.18218 4.6764-1.0152 8.2679-5.3079 10.132-3.3307 1.4464-6.7708-1.7095-9.9227 0.0935-1.984 1.1349-0.0331 4.8296-2.9253 6.4615-3.4715 1.9587-11.114 2.291-12.48-1.4534-2.2561-6.1822 4.6946-8.4697 5.316-12.274 0.29347-1.7965 1.8724-4.6634-3.3978-4.4099-4.2746 0.20561-2.4401 4.5632-5.9496 4.18-2.2999-0.25116-2.0726-3.6512-4.3392-4.1151-5.0069-1.0248-5.1346 5.4-7.0001 6.3787-4.299 2.2556-7.8832 0.34088-10.916-3.4499-3.3314-4.1638 3.5948-19.429 8.1447-21.855 5.2557-2.802 11.163 2.0429 16.606-0.37553z" fill="url(#radialGradient19073)" id="path193"/>
    </g>
    <g transform="translate(.011185 7.4462)" fill="none" stroke-dasharray="0, 7.7" stroke-width=".7" id="g199">
      <path d="m114.42 392.97c29.057-19.641 53.6-47.554 69.998-78.557 14.764-27.914 5.6401-65.518 22.993-91.901 11.493-17.472 30.576-29.985 49.857-38.085 13.958-5.8639 29.82-6.8927 44.954-6.4779 10.392 0.28485 20.243 7.2457 30.579 6.1325 9.2799-0.99944 18.888-4.7934 25.652-11.225 5.8081-5.5232 8.2228-19.556 28.574-38.81 2.0446-1.9343-1.1614-13.162-3.7582-19.005-1.3016-2.9283-5.4826-5.9428-3.9577-8.7612 1.258-2.3251 7.296-1.1863 7.8269-3.5673 0.64591-2.8964-1.8963-5.7998-3.8657-8.0197-5.5634-6.2711-10.637-8.1744-17.64-11.709-2.217-1.1191-4.766-3.9506-3.7829-6.2312 2.0594-4.7774 6.8493-6.4787 12.036-6.878 6.6989-0.51561 12.697 6.3403 19.371 5.5698 10.658-1.2304 9.5436-9.5354 12.485-10.197 9.9937-2.2485 18.557-2.9117 26.388-0.35699 8.0816 2.6365-8.005 10.936 23.589 26.718 3.4747 1.7356 3.8768 6.6931 1.9644 10.074-2.1178 3.7438-8.9618 0.23952-10.996 4.0296-2.2079 4.1144 3.3268 9.0979 6.2252 12.759 3.617 4.5686 6.521 8.9361 6.7347 14.304 0.12732 3.1989-4.7575 5.5014-4.1749 8.6493 1.348 7.2837 17.122 7.8826 16.182 15.23-0.7458 5.8307-12.667 1.7635-14.28 7.8902-1.4721 5.5911 0.9999 12.478 4.7668 16.864 2.6487 3.0841 6.6403 6.2251 10.69 5.8705 2.739-0.23982 3.8794-4.1395 6.4299-5.1663 5.9128-2.3804 13.168 0.77 19.047-1.6921 5.8783-2.4617 8.9161-9.4358 14.566-12.383 2.4082-1.2563 5.1718-2.2698 7.8808-2.0722 11.779 0.85913 18.789 7.2129 29.496 12.197 3.3368 1.5532 10.966 2.7018 10.948 5.6286-0.0289 4.7179-11.302 3.6548-12.727 6.1934-1.7453 3.1102-1.0961 7.5722 0.65468 10.679 3.8782 6.8829 13.257 8.6334 19.483 13.496 4.9787 3.8877 9.3888 6.3164 14.291 10.3 5.039 4.0948 10.763 9.4878 15.524 13.903 4.2384 3.9302 5.6644 6.4136 10.491 10.516 1.7766 1.5103 6.0167 2.8439 7.8501 1.4031 1.8516-1.4551 2.2594-4.2056 2.7447-6.51 0.77609-3.6851 0.95528-7.6106 0.18235-11.296-0.307-1.464-2.597-2.7731-1.8689-4.0798 1.7592-3.1572 7.2385-2.165 10.759-1.3463 2.5623 0.59591 4.1708 3.313 6.5949 4.3349 4.3366 1.8282 8.8414 2.5335 13.524 2.0612 3.6364-0.36682 7.6794-0.91538 10.288-3.4751 3.5216-3.4555 2.4869-10.231 6.2569-13.414 2.2766-1.9219 5.647-2.1613 8.6193-2.366 1.7906-0.12333 3.8692-0.33046 5.3387 0.69999 2.233 1.5658 3.6922 4.5381 3.7644 7.2644 0.0998 3.7695-3.8396 6.6262-4.666 10.305-0.79367 3.5336-0.82714 6.1902 0.57013 9.5315 1.6498 3.9451 6.0662 5.8697 9.1831 8.7971 1.7441 1.638 4.3112 4.2136 5.716 6.1505 1.9468 2.6841 1.8915 6.0467 3.0523 9.1526 1.3203 3.5326 2.61 7.1298 3.1796 10.858 0.84707 5.5439-0.78006 11.32 0.309 16.822 0.77003 3.8899 3.7387 11.08 4.3295 11.08 0.5908 0 9.716 0.83976 10.816 4.6 1.4208 4.8589-4.7508 6.7033-9.0168 9.429-2.8782 1.839-5.9187 2.7462-9.3232 3.0202-6.1503 0.49498-9.1628 1.1319-15.303 1.7386-3.3668 0.33268-6.7137 2.8788-8.2613 3.8275-8.3328 5.1083-20.887-2.1838-27.985 1.5282-2.4927 1.3036-3.3778 5.8033-2.166 8.342 1.2208 2.5576 5.0219 3.4384 6.2806 5.6784 2.1524 3.8306-2.6218 6.6251 2.6774 11.737 4.1597 4.013 12.256 1.8786 17.316-0.91653 5.0902-2.8122 1.1655-12.542 10.779-14.043 8.3311-1.3012 7.9156 7.8777 13.27 9.6406 3.0834 1.0152 6.1866 1.0993 9.3077 0.20667 13.028-3.7258 21.289-18.764 34.589-21.357 6.9702-1.3591 15.354 7.8638 21.004 3.5626 16.881-12.85 12.878-43.101 6.4496-63.32-3.9728-12.495-20.326-17.755-25.853-29.645-3.3597-7.2276-2.0677-15.819-3.6459-23.631-1.6126-7.9829-3.7044-15.868-5.9397-23.7-1.3999-4.9046-5.1671-9.493-4.6749-14.57 0.12382-1.2772 1.8584-3.3713 1.8584-3.3713-105.43-128.04-279.93-176.11-436.09-120.12-156.15 55.989-260.32 203.97-260.32 369.82 0 0 59.291-13.631 84.004-30.336z" fill="url(#radialGradient44064)" stroke="#000" stroke-dasharray="0, 7.7" stroke-linejoin="round" stroke-width=".7" id="path197"/>
    </g>
    <g stroke="#000" id="g287">
      <path d="m102.34 90.112c2.7848 28.847 8.1114 40.367 16.203 59.136 3.9902 9.2549 9.0843 18.241 15.718 25.829 3.102 3.5478 7.2586 7.083 10.988 8.8961 20.47-9.6152 31.25-10.858 47.547-12.825 9.5161-1.1482 19.243-0.56742 28.748 0.6702 8.0241 1.0448 16.439 3.0225 23.605 5.6678 3.5595-4.2194 7.0168-8.3977 10.941-12.196 11.722-11.348 28.197-19.655 43.596-27.126 11.758-5.7043 24.06-10.752 36.873-13.325 4.78-0.96009 8.1098-1.304 14.608-0.72604-23.648 11.457-40.044 37.301-52.003 61.221-4.2062 8.4131-6.759 16.456-8.6848 26.848 7.8121 6.517 14.648 13.984 22.063 20.88 7.376 6.8603 14.089 14.56 22.306 20.388 3.7104 2.6318 7.9965 4.6984 12.019 6.4632 14.755 2.2435 31.9 2.4766 44.334 2.9062 1.5554 0.11798 2.8655 0.4608 3.7002 2.8649 0.59378 1.7102 1.1807 3.6649 1.1437 5.555-0.0478 2.4356-0.87208 4.8238-1.7532 7.0949-0.79151 2.0402-1.7628 4.0636-3.1354 5.768-4.5677 5.6721-10.764 9.8368-16.529 14.287-7.159 5.5272-15.144 9.9178-22.361 15.369-7.7301 5.8386-15.087 12.164-22.384 18.535-2.0841 1.8196-3.6585 3.3747-6.1074 5.6204 2.2924 3.3489 4.8746 6.8066 6.5708 10.603 6.9393 15.531 10.176 32.054 10.325 48.897 0.0216 2.454-0.067 3.294-0.31 7.3558-7.5902-4.3584-15.602-6.4501-23.795-8.3091-13.849-3.1423-25.221-5.2458-40.613-6.652-4.8219 2.807-9.9439 7.1244-13.783 11.797-3.9162 4.767-7.2457 10.027-9.077 16.129 0.28476 1.3834 0.9546 2.7756 1.7327 4.0044 5.3597 8.4641 10.91 16.954 17.77 24.265 12.857 13.703 26.701 27.268 43.269 36.132 10.984 5.8762 23.388 10.532 35.844 10.57 10.116 0.0307 18.015-0.18356 25.871-3.9789 14.381-6.9473 23.612-14.901 36.782-19.044 8.1414-2.5613 16.849-3.5386 25.382-3.366 8.0353 0.16258 16.128 1.5966 23.754 4.1338 13.971 4.6482 24.945 11.233 33.47 22.646 2.7553 3.6887 4.9159 7.0126 5.3098 12.751 0.0716 1.0434 5e-3 2.1689-0.4661 3.1027-2.5518 5.0592-6.2387 5.2965-10.065 6.3307-3.8753 1.0475-6.8841 1.0779-10.356 1.11-2.4491 0.0227-4.8963-0.28853-7.319-0.64774-0.58692-0.087-1.1842-0.23324-1.7423-0.36429-0.24391-0.0117-0.4849 0.10199-0.72815 0.0804-5.3827-0.47772-6.0681 2.0437-8.659 3.851-6.6425 4.6334-13.374 10.153-20.374 14.778-10.971 7.2496-21.756 15.084-33.83 20.293-14.741 6.36-30.538 10.343-46.363 13.047-15.485 2.6462-27.783 3.4855-47.031 3.0234-2.741-0.0658-4.0898-0.0326-8.2251-0.0638 15.23 15.539 26.207 24.011 40.98 33.757 14.144 9.3306 28.364 17.8 45.154 23.35 6.4078 2.1182 12.573 3.4639 19.509 5.4147 16.329 2.1579 29.911 2.876 44.906 2.6947 11.822-0.14296 22.841-0.6557 35.345-2.9802 20.218-3.7588 38.349-15.338 55.994-25.9 6.9207-4.1427 13.154-9.3688 19.329-14.558 7.4564-6.2661 14.678-12.854 21.335-19.964 13.515-14.434 23.606-28.443 37.598-45.884 1.2255 25.71-6.5879 47.531-10.162 63.099 54.548-66.449 51.57-141.56 47.726-198.98 19.75 21.172 19.434 36.556 25.839 49.83 10.608-43.517 7.9221-96.897 3.5638-128.2-1.8106-13.006-5.9671-27.954-8.6584-39.272 17.986 7.7093 22.194 15.755 32.681 23.551-0.2799-13.951-0.46126-25.868-4.9089-37.754-6.3812-17.053-17.596-32.39-30.247-45.485-18.485-19.134-41.972-32.963-64.899-46.459-19.78-11.644-32.522-18.333-62.216-29.502 14.114-3.5073 19.948-3.478 30.03-4.1518 8.1467-0.54444 15.627-0.66289 24.494 0.0961-3.0577-5.8286-6.5077-9.5083-10.389-13.739-4.8842-5.3239-10.408-10.061-16.101-14.511-1.881-1.4704-4.1015-2.7926-5.9379-4.0056-15.619-6.2376-34.606-12.294-55.41-19.951 48.745 4.2682 89.363 9.4643 116.42 20.366 3.1643 0.97985 5.9388 2.9649 9.0436 4.1193 20.389 7.581 42.508 14.903 60.229 28.227 16.48 12.39 30.542 28.613 40.771 46.514 11.031 19.304 13.617 36.451 20.892 63.342-0.5372-29.998-5.1209-59.728-12.889-85.97 17.14 19.752 31.781 46.067 41.051 72.134 14.776 41.551 19.45 81.904 21.855 130.48 11.075-20.485 9.5924-26.312 12.305-44.017 5.0088 27.313 6.8714 49.037 5.7851 73.632-1.4567 32.98-7.4566 65.894-16.432 97.663-13.438 47.567-30.144 93.796-55.551 137.49-11.566 19.891-25.147 38.66-39.814 56.389-14.661 17.72-30.175 35.007-47.911 49.649-24.24 20.011-50.837 37.544-79.028 51.445-33.199 16.371-88.061 41.957-168.24 43.269-3.9577 0.0648-7.9202 0.32147-11.874 0.13498-23.4-1.1037-47.033-2.2614-69.886-7.4096-41.706-9.3953-84.382-20.437-121.02-42.471-60.208-36.21-114.09-85.755-154.88-142.96-22.177-31.105-35.801-68.147-46.036-104.95-7.2572-26.096-9.8711-53.504-10.462-80.584-0.42664-19.535 1.188-39.242 5.0023-58.406 3.1383-15.768 8.7638-35.494 14.598-45.969-9.613 0.50785-19.796 14.271-28.916 23.708 3.5784-17.195 3.664-22.761 6.9824-33.764 4.5313-15.025 10.141-29.851 17.546-43.688 7.469-13.957 16.661-26.659 26.847-39.174-0.56488-15.604-0.51618-29.548-0.17967-44.316 0.44595-19.572 2.5926-39.487 9.2231-57.856 7.6013-21.058 19.03-46.819 34.228-57.788z" fill="#fffffa" filter="url(#filter1622)" stroke-dasharray="0, 2.70236" stroke-width=".24567" id="path201"/>
      <g stroke-dasharray="0, 4.15748" stroke-width=".37795" id="g285">
        <g stroke-dashoffset="3.7795" id="g213">
          <path d="m264.63 567.24c7.8123 5.5049 32.358 2.6566 50.719 3.2127 16.794 0.50867 32.175-0.50755 47.031-3.0234 15.801-2.6759 31.836-6.2791 46.363-13.047 11.92-5.5532 22.742-12.86 33.83-20.293 7.0918-4.7543 13.465-9.7614 20.374-14.778 1.8728-1.3601 3.8448-4.3663 8.659-3.851 3.4067 0.3647 5.2353-9.5573 3.9226-12.282-3.2042-6.6505-17.701-7.238-25.01-8.2774-24.322-3.4589-47.009 16.932-71.567 17.602-32.773 0.89455-65.088-9.3678-96.648-18.245-13.977-3.9316-29.938-25.123-40.737-15.419-22.651 20.356-1.8315 70.86 23.063 88.402z" fill="url(#linearGradient50044)" id="path203"/>
          <path d="m281.39 386.84c-10.523 5.0788-17.089 11.911-19.216 14.761-3.6463 4.8862-10.15 13.021-10.31 24.13-0.0457 3.1622 1.1328 6.313-1.9327 7.0904-3.4698 0.87994-7.3096-1.1598-10.251-3.2-4.4984-3.1203-8.4065-7.7561-10.076-12.97-2.0203-6.3092-0.12407-13.299 0.8084-19.858 1.1141-7.8363 0.78999-16.835 5.6849-23.055 4.5484-5.7798 12.277-9.3014 19.581-10.171 9.6648-1.1506 19.571 2.7926 28.348 7 5.0882 2.4392 14.352 9.079 13.456 10.271s-7.261 2.6667-10.829 4.1568c-2.0299 0.84785-3.2816 0.88802-5.2628 1.8442z" fill="#60190e" id="path205"/>
          <path d="m209.31 483.13c13.867 16.755 39.17 18.95 59.152 27.538 18.599 7.9937 36.714 17.964 56.486 22.309 12.009 2.6389 24.542 2.5852 36.826 2.0822 27.363-1.1204 35.139-3.1697 51.94-8.1572 10.818-3.2113 25.002-11.21 30.892-13.846 4.6229-2.069 6.1601-3.0615 9.4732-3.0117 7.0128 0.10533 13.078 4.5251 19.993 5.6995 6.2089 1.0545 11.066 0.76563 17.675-0.46231 4.007-0.74457 8.8394-2.4437 10.065-6.3307 1.6991-5.3895-1.5514-11.261-4.8437-15.854-8.5055-11.865-19.801-17.518-33.47-22.646-7.5032-2.8149-15.793-4.0556-23.754-4.1338-8.7136-0.0856-17.058 0.79042-25.382 3.366-6.4182 1.9857-13.479 5.7531-19.045 8.9541-6.2776 3.6098-11.177 6.7612-17.736 10.09-6.809 3.4554-16.904 3.923-25.871 3.9789-12.678 0.079-24.662-4.594-35.844-10.57-16.573-8.8563-30.383-22.457-43.269-36.132-6.8971-7.3192-12.367-15.782-17.77-24.265-3.3755-5.2991-1.7185-12.228-7.3312-13.633-11.094-2.7779-30.448 2.6669-38.178 11.096-8.2108 8.9544-7.4413 23.597-7.1337 35.742 0.24535 9.6878 0.94744 20.72 7.1263 28.186z" fill="#ec6613" id="path207"/>
          <path d="m415.86 491.54c14.694-2.7967 19.955-3.8775 31.574-1.4578 8.7866 1.8298 12.762 5.7821 16.113 9.6173 2.8044 3.2097 6.3911 7.0563 9.9608 8.8031 3.0704 1.5025 9.8178 2.5484 13.23 2.35 3.7181-0.21618 7.8882-0.93926 10.434-4.3246 1.9345-2.5728 0.51847-6.7606-1.096-9.5454-2.5633-4.4214-7.1481-8.64-11.079-11.708-5.4115-4.2235-9.164-6.0591-15.453-8.8101-5.5432-2.4246-9.875-4.12-15.304-4.8246-6.8217-0.88543-14.876-1.029-22.085-0.44098-5.7845 0.47187-10.403 1.1747-15.533 3.8886-3.2163 1.7015-11.679 3.8695-12.923 7.2889-0.67694 1.8608-2.6092 4.4044-1.4536 6.0123 1.4266 1.9849 11.213 3.6079 13.615 3.1508z" fill="url(#linearGradient469883)" id="path209"/>
          <path d="m264.78 381.02c-1.1417 7.2935-10.25 3.4472-13.245 17.75-1.3601 6.4945 0.19643 12.289 1.0949 16.632 0.72664 3.5125 0.77752 10.381 2.042 22.244 1.9006 17.83 1.8158 36.115 6.6627 53.378 5.5966 19.933 11.651 34.231 25.898 55.21 16.368 24.102 41.235 45.247 60.87 57.915 16.624 10.725 26.224 17.671 45.154 23.35 7.8463 2.3538 27.581 7.5062 32.725 9.1014 4.7698 1.4793-10.498 12.756-14.167 15.643-17.027 13.397-43.609 5.6149-64.967 1.9794-37.227-6.3365-74.12-20.039-105.72-40.718-36.183-23.68-94.276-92.277-91.183-92.277s-12.731-67.962-4.8263-100.59c4.2896-17.703 16.636-32.572 27.313-47.33 6.9413-9.5936 12.372-22.946 23.671-26.489 11.882-3.7256 34.678 8.0912 36.341 8.6569 1.6628 0.56567 21.055 5.1341 27.931 12.707 3.0399 3.3482 5.1022 8.3647 4.4028 12.833z" fill="url(#linearGradient56839)" id="path211"/>
        </g>
        <path d="m102.34 90.112c-16.488 13.245-26.353 36.831-34.228 57.788-7.5138 19.997-8.5272 36.506-9.2231 57.856-1.1297 34.662-0.11548 61.491 4.945 62.702 2.3367 0.55941 4.9223 3.9515 6.2836 5.9314 2.0311 2.9541 2.157 1.9259 5.4683 3.2997 6.1497 2.5514 3.9752 2.9868 10.487 1.598 8.7056-1.8567 18.217 0.19142 26.538-2.9698 8.7753-3.3338 16.209-9.7675 23.007-16.241 8.695-8.2798 17.474-17.333 22.186-28.376 2.068-4.846 1.674-10.408 2.2539-15.645 0.80421-7.2621 2.8381-14.637 1.697-21.854-0.41988-2.6556-0.92088-5.8477-3.0749-7.4566-2.5825-1.929-6.6064 0.14977-9.6186-0.99797-5.6835-2.1656-10.67-6.2065-14.8-10.672-6.8432-7.3991-11.226-16.807-15.718-25.829-4.0575-8.1493-7.4892-16.657-10.06-25.39-2.1263-7.2237-3.3888-14.282-4.6851-21.7-0.67239-3.8474-1.0694-7.9038-1.4584-12.045z" fill="url(#linearGradient59652)" id="path215"/>
        <g stroke-dashoffset="3.7795" id="g283">
          <path d="m311.23 345.96c7.1744-2.0971 13.055-8.7174 18.654-13.669 7.257-6.4171 14.654-12.696 22.384-18.535 7.2171-5.4511 14.839-10.347 22.361-15.369 4.0907-2.731 7.3856-5.7038 11.255-8.7258 1.8575-1.4508 3.9461-3.6146 5.2744-5.5616 1.678-2.4596 1.6089-2.6523 2.7727-4.8787 0.39846-0.7623 0.5667-1.6001 0.64232-2.2469 0.10141-0.86728-2.4068-3.0081-3.0284-3.734-2.2745-2.6561-4.7863-2.0431-8.2801-1.8963-7.3257 0.30782-13.815 4.9245-20.645 7.5909-17.848 6.9674-36.828 11.876-53.118 21.961-6.1757 3.8231-12.559 8.1665-16.431 14.312-2.4255 3.8502-4.1161 8.6306-3.643 13.156 0.44191 4.2275 2.8746 8.3048 5.8708 11.32 3.5708 3.5932 8.6646 5.4097 13.447 7.081 1.5476 0.54086 0.91202-0.34459 2.4856-0.80455z" fill="url(#linearGradient64136)" id="path217"/>
          <path d="m337.68 258.46c1.4344 0.0283 16.509 3.8541 53.518 4.3613 2.7611 0.0378 3.4286 2.1857 3.7002 2.8649 0.61861 1.5468 1.3586 4.3595 1.0852 6.5584-0.15337 1.2337-1.2144 4.754-1.6937 6.091-0.14082 0.0733-0.54465 0.1379-0.75501 0.19723-0.4632 0.13065-1.8426 0.47215-2.4896 0.58211-1.9846 0.3373-4.5707 1.0254-7.1221 1.7177-1.696 0.46019-6.3222 2.6981-8.4938 2.3868-3.4448-0.4938-7.4062-4.8584-12.325-6.5856-5.5983-1.9656-9.8288-2.1346-14.502-5.7905-2.7259-2.1325-4.6489-5.1287-6.9308-7.7308-1.3472-1.5362-6.0336-4.6929-3.9908-4.6526z" id="path219"/>
          <path d="m268.99 202.6c8.9112 1.3355 17.322 5.6587 24.088 11.775 5.0856 4.5973 12.898 12.816 19.464 18.683 7.5109 6.7124 13.93 14.793 22.306 20.388 3.4351 2.2949 8.0081 4.6857 11.785 6.3594 5.4058 2.3956 10.392 4.409 16.425 8.1041 4.3044 2.6367 11.729 7.6716 13.751 9.8071 0.82129 0.86703 4.0474 3.5401 4.1963 4.1686-5.5547 2.2062-9.8504 4.2851-16.934 7.1619-5.4906 2.2297-15.92 5.7198-22.607 8.4561-5.0882 2.0821-10.735 4.7818-15.463 7.2932-5.4589 2.8994-13.11 6.4016-18.408 9.5847-4.777 2.8698-11.593 4.5892-16.999 5.9429-7.5249 1.8843-11.637 5.9403-17.854 1.3019-8.781-6.5506-7.6184-20.635-9.8-31.371-4.1527-20.436-6.5069-41.409-6.1312-62.259 0.14241-7.9033-2.2083-17.71 3.1728-23.501 2.0894-2.2482 5.9749-2.351 9.0102-1.8961z" fill="url(#linearGradient73078)" id="path221"/>
          <path d="m290.15 272.09c-6.0853 46.022-29.446 102.73-73.152 117.56-7.409 2.5134-19.296 8.0719-26.674 14.707-7.9188 7.1218-14.413 16.13-18.8 25.834-4.4394 9.8198-5.8072 20.946-6.1706 31.717-0.40095 11.886 1.5899 24.005 5.425 35.263 5.0565 14.842 12.387 29.395 22.719 41.189 12.93 14.758 30.597 24.755 47.355 34.96 22.519 13.714 46.331 25.527 70.945 34.978 18.493 7.1012 37.849 11.879 57.192 16.149 18.751 4.1399 37.744 8.3242 56.878 9.9419 13.205 1.1163 21.177 1.3239 31.797 1.2128 11.823-0.12376 23.707-0.89403 35.345-2.9802 6.5814-1.1798 13.02-3.1479 19.329-5.3625 6.1011-2.1416 11.822-5.2497 17.832-7.635 5.6981-2.2615 11.291-4.9692 17.27-6.3254 3.8698-0.87787 8.2865-2.8742 11.851-1.1298 2.9606 1.4489 5.1743 5.0553 5.2982 8.3491 0.21807 5.7955-4.4802 10.893-8.192 15.349-12.532 15.046-30.265 24.879-45.971 36.572-20.666 15.386-39.438 34.795-63.445 44.148-16.496 6.4271-34.926 7.4321-52.627 7.1542-47.157-0.74037-95.167-7.4492-139.53-23.451-40.11-14.466-77.215-37.726-110.64-64.201-29.173-23.108-57.779-49.1-76.655-81.174-17.208-29.239-26.249-63.395-30.77-97.02-4.4326-32.969 5.8665-66.506 3.9727-99.717-0.36437-6.3902 2.9942-16.578-2.9404-18.975-10.416-4.2082-17.533 2.3888-27.929 19.231 4.38-17.085 8.7353-23.702 11.978-36.285 1.8626-7.2285 2.3659-14.831 4.911-21.849 1.8345-5.0583 4.6931-9.6943 7.3789-14.357 3.674-6.378 7.689-12.565 11.925-18.585 9.0482-12.858 19.391-25.579 30.11-37.081 6.346-6.8102 16.315-14.076 23.694-19.222 8.0309-5.6003 16.138-10.774 24.505-15.857 12.334-7.4928 27.852-15.158 40.465-19.026 8.8-2.6991 18.783-4.386 27.965-5.0285 8.4483-0.59115 19.556-0.71233 28.748 0.6702 14.47 2.1764 24.707 5.4632 34.818 10.408 8.4917 4.1527 18.07 12.283 24.929 16.956 1.5407 1.0496 3.3751 1.6982 4.7402 2.9677 1.6058 1.4933 3.0809 3.2684 3.8862 5.308 0.57689 1.4611 0.69751 3.0108 0.56462 4.6787-0.5841 7.3313-1.0897 14.784-1.4941 22.222-0.43623 8.0234-0.38616 16.566 0.0397 24.572 0.15394 2.8935 0.10788 5.2288 0.52795 8.0958 0.24663 1.6833 0.96843 3.4082 0.5978 5.0686z" fill="url(#radialGradient3636)" id="path223"/>
          <path d="m351.17 124.11c-29.096 13.047-57.671 63.521-60.684 88.024-1.8921 15.386-2.7006 28.537-1.4544 46.795 0.75032 10.993-20.319 10.962-31.33 10.544-13.669-0.51992-31.074-4.0867-37.787-16.006-6.9981-12.426 1.1022-29.003 6.1542-42.34 6.4705-17.081 16.959-33.075 30.024-45.84 12.243-11.961 28.197-19.655 43.596-27.126 11.758-5.7043 26.23-11.652 36.873-13.325 4.8127-0.75668 9.4642-1.3273 14.608-0.72604z" fill="url(#linearGradient8233)" id="path225"/>
          <path d="m340.36 404.77c1.4068-15.646-1.9818-38.984-10.015-56.252-6.6496-14.295-24.614-30.073-30.275-36.338-5.5321-6.1224-7.011-19.213-8.4107-29.266-1.5061-10.818-2.104-15.886-2.6319-23.982-0.62256-9.5465-5.7285-9.7466-10.637-11.598-9.4768-3.5744-20.688-0.19775-30.211 3.2527-20.055 7.2668-39.467 19.213-53.246 35.497-16.886 19.956-27.23 45.871-32.103 71.554-2.3108 12.177-4.714 26.557 1.7342 37.142 2.9505 4.8432 9.3428 6.7527 14.738 8.4999 2.8742 0.93079 8.6194 3.2068 11.024 1.0807 8.3524-7.3855 16.907-11.934 26.674-14.707 13.244-3.7602 44.554-1.4692 58.713 0.12852 13.711 1.5472 27.479 3.2785 40.851 6.679 8.1422 2.0705 16.645 4.1559 23.795 8.3091z" fill="url(#linearGradient10988)" id="path227"/>
          <path d="m9.8653 358.44c11.538-12.659 28.767-32.039 38.461-38.569-1.5924 8.7588-6.8171 26.732-7.3977 41.002 10.538-15.576 14.732-22.349 26.086-28.348 7.9371-4.1942 17.673-3.6717 26.648-3.9 4.8995-0.12466 9.7555 0.95783 14.638 1.3866 4.478 0.39331 9.1656 2.4744 13.442 1.088 6.6441-2.1541 11.375-8.3205 15.92-13.624 4.7948-5.5938 11.698-11.426 11.634-18.793-0.0575-6.5285-5.8778-11.962-10.601-16.469-2.2341-2.1321-5.499-2.8557-8.0159-4.6451-2.4766-1.7607-4.4755-4.1271-6.908-5.9483-6.7732-5.0711-13.189-11.415-21.309-13.793-4.851-1.4207-10.348-1.4657-15.164 0.0707-18.109 5.7775-33.927 18.678-46.642 32.808-10.243 11.383-16.336 26.055-22.335 40.144-3.7682 8.8501-5.0176 11.249-8.4545 27.59z" fill="url(#linearGradient557472)" id="path229"/>
          <path d="m103.59 317.45-15.024 22.54 22.663 15.401 18.098-34.079z" fill="url(#linearGradient559355)" id="path231"/>
          <path d="m7.6927 366.7c8.7454-10.065 21.707-24.081 28.916-23.708-5.9926 9.7297-11.32 30.25-14.598 45.969-4.016 19.258-5.253 37.334-5.0023 58.406 0.3226 27.119 3.0732 54.489 10.462 80.584 10.408 36.756 23.859 73.846 46.036 104.95 40.787 57.207 94.672 106.75 154.88 142.96 36.636 22.034 79.244 33.382 121.02 42.471 26.061 5.6703 53.021 8.0383 79.681 7.2681 33.132-0.95722 66.388-5.9134 98.338-14.735 25.191-6.9552 49.14-18.213 72.123-30.654 27.092-14.665 56.4-29.951 76.55-53.254 6.6083-7.6424 11.632-15.503 13.385-25.453 1.802-10.23 0.28722-21.261-3.38-30.98-4.132-10.951-11.291-21.13-20.2-28.722-10.142-8.6424-23.897-11.797-35.931-17.518-10.103-4.8027-19.294-13.264-30.449-14.108-22.886-1.733-45.664 8.8044-66.121 19.21-4.4545 2.2658-7.9202 6.0973-11.859 9.1728-7.9764 6.2276-17.038 11.849-24.301 17.993-9.1142 7.7102-18.911 14.172-28.835 20.747-7.3288 4.8547-15.935 8.8128-24.02 11.621-7.4399 2.5844-23.706 4.0908-35.747 4.2004-12.68 0.1155-24.759-0.92158-37.573-2.2159-12.782-1.2911-40.245-4.5271-49.36-6.0103-8.8707-1.4434-21.261-4.9236-27.629-6.941 9.087 9.5242 21.494 14.26 32.32 18.519 12.343 4.8561 29.504 8.4068 38.491 10.092-13.052 1.6581-25.661 1.366-38.186-0.92451-16.509-3.0192-32.384-9.3986-47.507-16.675-22.166-10.665-42.738-24.575-62.55-39.155-7.3026-5.3738-13.249-12.463-20.636-17.72-4.7014-3.345-9.3667-7.2878-14.958-8.7105-3.0685-0.7807-6.3411-7e-3 -9.4947 0.27569-2.6133 0.23445-6.1471 1.3171-7.783 1.1757s-7.7154-2.8329-11.023-5.1897c-9.4573-6.7398-16.48-16.38-24.316-24.951-6.8457-7.4878-12.958-15.625-19.811-23.107-10.681-11.661-25.027-20.359-33.174-33.912-5.7267-9.5264-7.2324-21.04-10.113-31.775-5.3968-20.116-9.9131-40.495-13.398-61.028-2.1543-12.694-3.371-25.535-4.6284-38.349-1.4679-14.96-7.958-30.171-5.9393-45.067 0.92532-6.8277 2.2016-13.141 3.7385-20.236 1.3149-6.0701 2.7877-12.107 4.3575-18.116 0.6516-2.4944 1.2975-5.242 2.1001-7.4436-2.9729 0.94087-7.7772 4.1665-11.316 7.1458-4.4863 3.7766-8.7609 8.0845-12.795 12.341-3.1987 3.3754-5.9825 6.2922-9.0419 10.001-2.8198 3.4188-4.5399 5.3876-6.6373 9.312-1.735 3.2464-3.2381 5.77-4.081 12.238z" fill="#b30000" id="path233"/>
          <path d="m555.99 137.14c24.279 8.9817 42.436 17.859 62.216 29.502 22.927 13.496 46.413 27.325 64.899 46.459 12.651 13.095 23.866 28.432 30.247 45.485 4.4476 11.886 5.2526 28.222 4.9089 37.754-10.819-9.5744-20.497-18.999-32.681-23.551 3.5514 15.188 6.4102 26.328 8.6584 39.272 2.6476 15.243 4.0838 39.886 3.8481 60.378-0.26151 22.742-0.97381 42.531-7.4119 67.826-4.1984-7.8948-7.2127-30.593-25.839-49.83 2.5595 25.025 3.5682 79.132-6.1558 116.93-7.4394 28.919-22.853 61.367-41.57 82.053 4.4202-17.255 11.61-44.534 10.162-63.099-11.149 13.155-28.553 38.152-45.955 54.235-16.147 14.922-25.404 21.905-36.698 30.861-7.3176 5.8027 5.5476-4.117-6.9973 5.9721 6.3165 11.112-3.5801 26.46-19.536 32.769-23.512 9.2976-28.138 9.7468-47.964 23.86-7.0498 5.0187-22.381 17.708-63.288 26.521-28.814 6.207-52.55 23.942-52.224 33.84 0.63064 19.126-0.44699 24.162 10.927 39.551 9.9916 13.518 17.812 29.283 30.853 39.891 3.507 2.8528 7.9704 4.324 12.193 5.9397 6.6378 2.54 13.398 5.7992 20.505 5.8436 59.46 0.37148 113.01-15.193 170.32-43.262 38.877-19.04 55.9-31.041 79.028-51.445 17.2-15.174 33.23-31.85 47.911-49.649 14.681-17.799 28.012-36.721 39.814-56.389 25.435-42.387 41.974-89.956 55.551-137.49 9.0669-31.742 14.477-64.709 16.432-97.663 1.3752-23.186-2.0946-55.16-5.7851-73.632-1.667 8.4047-1.5379 26.225-12.305 44.017-0.95911-36.987-7.3926-88.822-21.855-130.48-8.8374-25.456-27.64-57.636-41.051-72.134 6.8884 20.324 13.221 66.158 12.889 85.97-6.1215-23.106-9.8617-44.039-20.892-63.342-10.229-17.901-24.402-33.978-40.771-46.514-19.205-14.709-53.373-26.01-66.977-30.466-11.704-3.8337-24.691-5.7194-37.984-7.5727-14.042-1.9576-21.282-3.5448-42.198-5.3265 9.0188 5.1359 10.341 6.2215 22.812 14.609 6.0481 4.0678 10.923 9.2992 16.101 14.511 3.9809 4.007 7.3597 8.6677 10.389 13.739-6.6658-0.53682-16.506-0.5801-24.494-0.0961-10.087 0.61111-18.81 1.1848-30.03 4.1518z" fill="url(#linearGradient108064)" id="path235"/>
          <path d="m484.12 635.29c9.706-3.6188 20.318-4.5728 29.862-8.5995 12.382-5.2243 23.798-12.582 35.027-19.967 6.7387-4.4326 13.096-9.4378 19.329-14.558 4.4857-3.6852 8.7606-7.6249 12.979-11.614 2.8611-2.7057 4.8991-6.4654 8.3566-8.3503 0.62615-0.34136 1.3828-0.36933 2.091-0.45274 1.56-0.18372 3.2137-0.57354 4.7114-0.1 1.8881 0.59695 3.6678 1.8841 4.7872 3.5174 3.9804 5.8075 7.4822 13.624 5.5232 20.387-2.9948 10.338-15.099 15.485-23.795 21.827-11.319 8.2538-24.366 13.83-36.515 20.803-7.0611 4.053-13.836 8.6377-21.144 12.227-5.5831 2.7424-11.291 5.3512-17.268 7.0751-9.5839 2.7643-19.61 3.6948-29.478 5.144-11.319 1.6623-23.022 7.0053-34.08 4.07-4.4018-1.1684-9.7338-3.7537-10.977-8.1351-1.2088-4.2605 1.8317-9.1723 4.9289-12.338 2.3552-2.4071 6.0324-3.1288 9.298-3.9518 8.6199-2.1723 17.971-0.13845 26.556-2.4461 3.4793-0.93529 6.4335-3.2801 9.8093-4.5387z" fill="url(#linearGradient115050)" id="path237"/>
          <path d="m499.63 654.07c-7.8424 10.485-23.323 19.905-36.835 26.856-11.804 6.0724-24.575 10.402-37.799 11.558-10.311 0.90163-22.866 1.1557-33.978 0.60632-13.492-0.66711-29.675-3.3451-42.854-6.3095-12.198-2.7437-21.085-4.9451-33.684-8.4219-1.8618-0.51378-3.5171-0.42857-5.2471-1.2872-2.2789-1.1311-3.405-3.9695-4.16-6.3991-1.0452-3.3639-0.95354-7.1073-0.27575-10.564 1.1288-5.7568 4.0949-11.06 7.069-16.117 1.3289-2.2594 2.5363-4.8707 4.7589-6.26 1.5387-0.96182 3.5253-1.007 5.339-1.0629 1.4022-0.0433 2.9777-0.17293 4.1703 0.56569 1.6547 1.0248 2.5206 3.0384 3.2806 4.8302 0.32768 0.77252 0.0141 1.7906 0.51422 2.4644 1.1015 1.4839 3.1917 1.8748 4.8669 2.6551 4.9322 2.2975 10.063 4.1571 15.204 5.9397 9.3022 3.2257 18.695 6.2547 28.26 8.592 10.082 2.4639 20.263 4.8938 30.61 5.7032 11.757 0.91955 23.622 0.10722 35.363-0.99362 9.1599-0.85884 18.239-2.5258 27.253-4.3668 7.0695-1.4439 14.125-3.055 21.005-5.2309 2.4322-0.76925 5.0967-1.8577 7.139-2.7572z" fill="url(#linearGradient151625)" id="path239"/>
          <path d="m798.19 229.61c-8.8374-25.456-27.64-57.636-41.051-72.134 6.8884 20.324 13.221 66.158 12.889 85.97 0.0253 22.468 37.48 17.654 28.161-13.836z" fill="url(#linearGradient160083)" id="path241"/>
          <path d="m522.67 80.874c43.271 4.5817 89.058 8.7051 116.42 20.366 26.835 11.435 60.586 33.257 71.536 50.404-6.1903-2.1604-18.864-7.0997-27.615-8.2484 15.765 11.615 40.236 32.559 56.184 52.676 9.462 11.936 16.069 25.934 22.822 39.586 2.13 4.3061 2.8138 9.3536 5.5556 13.298 1.0628 1.5291 3.3395 2.107 4.081 3.8152 0.75674 1.7434 0.45449 3.8562 0 5.7016-1.012 4.109-2.6065 8.5807-5.8956 11.243-4.8893 3.9579-11.901 4.5974-18.172 5.0912-5.1882 0.40852-11.865 1.9094-15.508-1.8072-1.78-1.816-0.46628-5.0644-0.73115-7.5934-0.20716-1.978-8e-3 -4.0536-0.67109-5.9287-4.0008-11.314-11.903-20.948-19.339-30.367-12.045-15.258-25.187-30.009-40.575-41.888-26.767-20.663-40.837-27.493-83.285-48.672 13.041 0.84109 22.583 3.4566 34.395 7.3682 15.128 5.0094 26.398 11.1 40 19.403 11.213 6.8452 20.084 14.109 31.856 23.208-12.693-17.16-27.911-32.334-44.341-45.816-15.958-13.094-33.707-24.085-52.05-33.551-12.328-6.3619-25.668-10.542-38.645-15.447-11.925-4.507-20.64-7.6035-36.024-12.842z" fill="url(#linearGradient163553)" id="path243"/>
          <path d="m704.61 297.16c4.6115 30.047 6.2651 66.455 2.1735 101.2-0.97049 8.2418-1.5238 15.06-4.0819 24.559 11.731 4.0024 23.693 4.6024 31.706 1.0235 2.9259-17.024 2.4832-24.483 0.61545-36.511-4.8723-31.377-12.777-69.416-30.414-90.275z" fill="url(#linearGradient184328)" id="path245"/>
          <path d="m751.2 280.06c2.7869 70.031 0.32231 89.413-7.6857 133.14-5.5058 30.063-10.47 53.678-27.499 87.469 10.168 15.996 41.005 18.706 56.354 7.5855 6.5652-25.301 8.5668-34.787 9.7288-52.57 2.5765-39.433 2.7798-79.909-6.221-118.39-4.7322-20.23-12.04-36.536-24.677-57.236z" fill="url(#linearGradient193594)" id="path247"/>
          <path d="m825.05 381.93c-15.883 61.563-57.415 132.26-103.76 193.34-6.1144 8.0592-10.01 14.041-17.77 24.602 3.8957 15.956 28.29 26.904 44.012 22.154 7.7191-12.714 13.231-23.195 19.82-34.808 36.984-65.185 57.136-132.71 57.697-205.29z" fill="url(#linearGradient196472)" id="path249"/>
          <path d="m678.89 445.88c19.046 35.849 18.533 63.536 20.135 106 0.28555 7.5698 0.47296 13.751-0.0717 22.725-8.8977 8.119-28.929 6.5684-35.995-3.1869 3.5666-10.796 5.1636-19.732 6.9321-29.765 5.9678-33.853 9.9941-57.972 8.9995-95.773z" fill="url(#linearGradient200068)" id="path251"/>
          <path d="m738.3 509.74c-43.872 54.998-104.75 127.92-189.19 169.49-38.242 18.826-80.861 27.98-122.77 35.779-5.0683 0.94336-7.588 1.4633-15.411 1.3047-11.766 20.855-4.0085 54.303 8.0911 74.4 6.684 1.0588 10.485 1.1654 15.75 1.2 8.3509 0.0548 16.73-0.43701 25.004-1.5751 14.335-1.9721 28.767-4.3706 42.453-9.0708 56.353-19.354 112.56-42.567 151.78-85.36 46.024-50.222 68.013-98.911 84.288-186.17z" fill="url(#linearGradient200735)" id="path253"/>
          <path d="m253.57 548.08c-25.451-47.108-21.589-88.338-20.812-119.35 0.13976-5.5801 0.3597-12.714 1.4484-16.683-5.123-5.8931-16.875-5.1989-23.393-1.2404-0.62407 5.557-0.045 15.165 0.50953 22.721 3.3192 45.222 12.038 88.851 42.247 114.55z" fill="url(#linearGradient297111)" id="path255"/>
          <path d="m290.89 717.49c-32.56-20.096-51.863-35.33-73.702-56.34-1.9896-1.9141-3.5032-3.6738-6.0573-5.6491-6.9727 1.7893-14.03 7.1047-17.003 14.364 3.7618 4.1593 6.5161 6.4805 10.364 8.9256 26.635 16.923 52.741 29.98 86.398 38.699z" fill="url(#linearGradient323955)" id="path257"/>
          <path d="m197.4 698.71c-27.224-31.146-33.896-45.821-46.842-71.068-2.1192-4.1326-3.5237-8.5426-4.9721-13.016-6.249-3.2743-16.026-0.23211-20.555 5.0436 0.33115 2.7838 1.9106 5.9066 3.6107 8.4572 18.217 27.331 36.412 52.429 68.758 70.583z" fill="url(#linearGradient343142)" id="path259"/>
          <path d="m134.66 656.37c-35.372-24.89-54.989-51.221-67.025-85.327-2.5861-7.3284-1.6363-9.3012-1.1038-16.78 5.6369-0.60247 12.822-2.1209 20.229-0.36199-0.17417 8.4346 0.64688 12.902 2.6395 18.966 9.8838 30.078 16.767 46.637 45.261 83.503z" fill="url(#linearGradient345984)" id="path261"/>
          <path d="m209.18 653.07c-17.674-25.004-18.222-29.573-25.035-45.481-1.6122-3.7647-2.6029-7.2311-3.7014-11.715-8.248-0.38564-15.661 6.49-19.225 10.659 1.1994 5.3753 3.8859 9.092 6.8186 13.014 8.4624 11.318 17.004 20.315 41.142 33.523z" fill="url(#linearGradient347677)" id="path263"/>
          <path d="m209.59 685.61c-23.771-37.677-25.867-46.024-30.947-71.489-0.94841-4.7545-0.21781-10.006 0.21451-14.543 0.51602-5.4157-5.7944-10.35-10.942-12.109-6.0687-2.0735-13.498-4e-5 -18.937 3.3968-1.9458 1.215-3.9698 3.2612-4.0649 5.5532-0.24182 5.8297-3.6807 9.8529-0.95173 14.982 5.6707 10.657 15.952 23.08 23.035 32.392 12.046 15.836 13.887 22.292 42.594 41.818z" fill="url(#linearGradient369643)" id="path265"/>
          <path d="m139.62 628.17c-43.546-53.215-37.452-97.088-39.938-120.87-1.0087-9.653 3.1951-22.622 5.1511-29.939-8.4665-10.035-31.859-13.61-41.4-4.5902-1.1071 12.654-0.74674 20.424 1.359 30.782 9.1779 45.144 20.968 88.18 74.827 124.62z" fill="url(#linearGradient372028)" id="path267"/>
          <path d="m113.49 517.18c-18.715-52.448-17.43-78.876-16.172-118.67 0.20366-6.4427 0.82578-11.103 2.6706-19.153-5.1385-7.2762-16.947-7.8359-24.325 0.7212-1.9149 7.4723-2.1066 21.073-0.36122 31.391 4.808 36.94 10.808 62.554 38.187 105.71z" fill="url(#linearGradient389774)" id="path269"/>
          <path d="m61.752 566.75c-5.7645-52.191 4.665-112 13.941-144.29 4.2745-14.881 8.8923-28.096 13.266-43.148 0.56162-1.933-1.6549-5.7195-1.2568-7.5513-9.1386-5.8012-21.628-7.3762-30.259-5.0728-1.4007 3.496-2.2811 6.8025-2.8818 10.325-1.5359 9.0062-4.0722 25.769-4.636 34.223-3.0932 46.392-5.8878 113.91 11.827 155.51z" fill="url(#linearGradient426502)" id="path271"/>
          <path d="m8.6311 361.81c3.347-17.336 3.5147-20.006 6.0441-28.878 3.1799-11.153 7.1147-22.148 12.079-32.629 5.4474-11.502 11.383-22.979 19.304-32.942 7.6964-9.6804 17.787-17.193 26.958-25.491 3.0096-2.7229 6.1571-5.1547 9.2064-7.968 7.5679 4.4368 17.961 14.059 24.968 26.448-5.9237 1.4912-9.5797 3.2185-14.02 5.5812-41.713 22.194-71.153 58.775-84.539 95.877z" fill="url(#linearGradient461648)" id="path273"/>
          <path d="m27.961 472.08c6.1929-33.657 10.395-49.874 21.743-72.357 5.1221-10.148 13.014-18.692 20.447-27.292 1.377-1.5934 2.6855-2.5446 4.4539-4.481-6.2953-8.8029-17.498-15.311-25.633-17.518-1.846 2.694-4.7206 7.7686-6.0515 12.067-10.904 35.216-19.661 68.116-14.959 109.58z" fill="url(#linearGradient473489)" id="path275"/>
          <path d="m26.835 441.08c0.39076-26.505 2.4286-35.334 5.378-51.553 2.7897-15.341 9.8169-38.523 19.581-53.996 6.1773-9.7891 10.403-16.009 16.582-25.031 0.87699-1.2804 1.2161-2.9476 1.7243-3.6481 7.925 3.9162 36.321 8.6795 43.759 17.341-2.1811 3.0315-13.338 11.915-15.108 13.083-1.6658 1.0997-15.703 10.829-22.027 17.436-16.091 16.813-29.517 32.26-39.358 51.493-5.5316 10.811-6.3423 14.309-10.532 34.876z" fill="url(#linearGradient497445)" id="path277"/>
          <path d="m77.501 341.01c12.289-25.192 22.903-36.67 38.597-50.037 6.2736-5.3435 13.496-10.48 19.39-16.239 1.1527-1.1264 1.7817-1.8087 3.271-3.1056-5.7572-10.361-20.756-18.322-31.158-21.353-0.72362 1.2615-2.0317 3.5718-2.9924 5.3944-1.5247 2.8925-2.706 5.5678-3.8328 8.4345-9.7979 24.927-22.218 55.254-23.275 76.905z" fill="url(#linearGradient533196)" id="path279"/>
          <path d="m98.531 421.38c11.741-36.926 27.293-64.108 45.535-92.207 4.9348-7.6013 10.065-15.129 15.97-22.003 1.184-1.3782 2.3416-2.1923 3.8786-3.8299-1.3198-13.096-22.797-27.24-36.178-27.162-1.4964 1.2539-2.4747 3.5396-0.15802 3.8809 2.4236 0.35709 6.7633 5.0238 7.5205 6.0359 1.5062 2.0132 4.7517 2.8527 4.4434 4.4167-0.50021 2.5372-6.207 12.516-7.6638 14.614-2.3981 3.4529-4.4952 7.186-7.7637 13.035-11.484 20.552-23.797 55.506-25.584 103.22z" fill="url(#linearGradient547904)" id="path281"/>
        </g>
      </g>
    </g>
  </g>
</svg>